<svg width="24" height="24" fill="none" xmlns="http://www.w3.org/2000/svg"><path d="M5.07 15.015a2.483 2.483 0 01-2.478 2.477 2.483 2.483 0 01-2.477-2.477 2.483 2.483 0 012.477-2.477H5.07v2.477zm1.247 0a2.483 2.483 0 012.477-2.477 2.483 2.483 0 012.477 2.477v6.202a2.483 2.483 0 01-2.477 2.477 2.483 2.483 0 01-2.477-2.477v-6.202zM8.794 5.07a2.483 2.483 0 01-2.477-2.478A2.483 2.483 0 018.794.115a2.483 2.483 0 012.477 2.477V5.07H8.794zm0 1.247a2.483 2.483 0 012.477 2.477 2.483 2.483 0 01-2.477 2.477H2.592A2.483 2.483 0 01.115 8.794a2.483 2.483 0 012.477-2.477h6.202zm9.946 2.477a2.483 2.483 0 012.477-2.477 2.483 2.483 0 012.477 2.477 2.483 2.483 0 01-2.477 2.477H18.74V8.794zm-1.248 0a2.483 2.483 0 01-2.477 2.477 2.483 2.483 0 01-2.477-2.477V2.592A2.483 2.483 0 0115.015.115a2.483 2.483 0 012.477 2.477v6.202zm-2.477 9.946a2.482 2.482 0 012.477 2.477 2.483 2.483 0 01-2.477 2.477 2.483 2.483 0 01-2.477-2.477V18.74h2.477zm0-1.248a2.483 2.483 0 01-2.477-2.477 2.483 2.483 0 012.477-2.477h6.202a2.482 2.482 0 012.477 2.477 2.483 2.483 0 01-2.477 2.477h-6.202z" fill="#023A15"/></svg>